<?xml version="1.0" standalone="no"?>
<!DOCTYPE svg PUBLIC "-//W3C//DTD SVG 20010904//EN"
 "http://www.w3.org/TR/2001/REC-SVG-20010904/DTD/svg10.dtd">
<svg version="1.0" xmlns="http://www.w3.org/2000/svg"
 width="300.000000pt" height="199.000000pt" viewBox="0 0 300.000000 199.000000"
 preserveAspectRatio="xMidYMid meet">
<metadata>
Created by potrace 1.10, written by Peter Selinger 2001-2011
</metadata>
<g transform="translate(0.000000,199.000000) scale(0.100000,-0.100000)"
fill="#000000" stroke="none">
<path d="M375 1690 c-1 -3 -5 -22 -9 -43 -13 -72 -93 -137 -168 -137 -21 0
-38 -4 -38 -10 0 -5 7 -10 15 -10 8 0 15 -9 15 -20 0 -11 -7 -20 -15 -20 -15
0 -22 -20 -7 -20 4 0 14 -4 22 -10 12 -7 12 -12 -4 -29 -11 -12 -14 -21 -8
-21 18 0 14 -41 -5 -56 -17 -13 -17 -13 0 -14 21 0 23 -38 2 -46 -8 -4 -15
-10 -15 -15 0 -5 7 -9 15 -9 18 0 20 -36 3 -43 -10 -4 -10 -7 -1 -18 7 -7 13
-21 13 -30 0 -10 -6 -20 -12 -23 -10 -3 -9 -8 2 -18 19 -16 19 -36 0 -49 -11
-8 -12 -12 -2 -16 14 -6 16 -43 2 -43 -5 0 -10 -7 -10 -15 0 -8 5 -15 10 -15
6 0 10 -9 10 -20 0 -11 -7 -20 -15 -20 -20 0 -19 -10 2 -26 16 -11 16 -16 5
-35 -10 -15 -11 -24 -3 -32 15 -15 14 -44 -1 -50 -10 -3 -8 -10 5 -25 18 -19
18 -20 -2 -34 -20 -14 -20 -14 1 -33 l22 -18 -24 -19 c-22 -18 -23 -21 -7 -29
21 -12 22 -35 2 -43 -30 -11 -14 -26 28 -26 78 -1 157 -79 157 -156 l0 -30
1150 0 c759 1 1150 4 1151 11 1 6 3 19 4 30 9 70 57 123 117 130 28 3 35 15
15 26 -22 13 -22 35 1 48 16 10 16 12 0 25 -10 7 -18 18 -18 24 0 6 8 16 18
22 16 10 16 10 0 20 -10 6 -18 16 -18 22 0 6 8 17 18 24 16 12 16 14 -3 28
-20 16 -20 16 0 32 19 14 19 16 3 25 -24 13 -23 36 2 44 11 3 20 11 20 17 0 5
-9 12 -20 15 -26 7 -26 33 0 40 20 5 25 26 6 23 -9 -2 -26 19 -26 32 0 4 9 10
20 13 23 7 27 25 6 25 -21 0 -27 27 -10 45 14 13 14 17 -1 31 -15 15 -15 18 0
34 14 15 14 21 3 40 -11 18 -11 23 5 34 15 12 15 15 2 26 -20 16 -19 30 3 46
16 12 16 13 0 19 -10 4 -18 13 -18 21 0 7 8 18 18 23 16 10 16 12 0 25 -22 16
-24 46 -3 46 8 0 15 4 15 9 0 5 -7 11 -15 15 -8 3 -15 12 -15 21 0 9 7 18 15
21 23 9 18 24 -9 24 -37 0 -103 70 -113 121 l-8 42 -445 4 c-680 7 -1852 9
-1855 3z m95 -30 c0 -6 10 -10 23 -10 18 0 19 2 7 10 -10 6 15 9 77 8 50 -1
90 -4 88 -7 -2 -3 11 -5 28 -4 18 1 32 2 32 4 0 1 60 3 133 4 72 1 132 -1 132
-6 0 -5 9 -4 20 3 16 10 24 10 41 0 12 -8 18 -9 15 -3 -5 7 29 10 108 8 63 -1
112 -5 110 -9 -3 -4 9 -2 26 3 22 8 34 8 44 0 11 -9 15 -9 18 1 4 10 10 10 31
1 15 -7 27 -8 27 -3 0 10 193 5 210 -5 5 -3 10 -1 10 4 0 6 11 11 25 11 16 0
25 -6 25 -15 0 -8 5 -15 11 -15 6 0 8 7 5 16 -5 12 -2 15 11 9 10 -4 25 -6 33
-5 30 4 122 2 147 -5 16 -4 22 -2 18 5 -3 5 1 10 9 10 9 0 16 -7 16 -15 0 -8
6 -15 14 -15 7 0 19 7 26 15 18 21 60 20 61 -2 0 -15 2 -15 7 -3 5 10 22 15
55 15 26 0 47 -3 47 -6 0 -15 30 -17 44 -4 10 11 22 12 47 5 22 -7 35 -7 37 0
2 6 16 3 33 -5 26 -14 30 -14 35 -1 5 12 11 13 29 4 17 -7 36 -8 64 -1 22 6
43 8 46 5 3 -3 38 -7 77 -8 66 -1 72 -3 85 -28 8 -14 11 -31 8 -36 -3 -6 1
-10 9 -10 9 0 16 -9 16 -20 0 -11 6 -20 13 -20 7 0 18 -9 25 -20 7 -11 19 -20
26 -20 11 0 15 -12 14 -40 0 -22 -4 -40 -8 -40 -4 0 -11 -7 -14 -16 -5 -14 -4
-15 9 -4 12 10 16 9 21 -4 3 -9 1 -22 -5 -30 -8 -9 -8 -22 -2 -38 5 -14 5 -31
1 -38 -5 -8 -7 -42 -5 -76 3 -35 0 -66 -5 -69 -6 -4 -3 -16 6 -30 8 -13 11
-26 6 -29 -5 -3 -8 -26 -7 -51 2 -25 -1 -45 -6 -45 -5 0 -4 -9 3 -20 11 -17
10 -22 -2 -30 -12 -7 -12 -12 -2 -22 18 -18 15 -31 -5 -24 -17 6 -17 5 -1 -7
14 -11 15 -16 5 -26 -9 -9 -9 -14 3 -21 11 -7 12 -14 2 -34 -7 -16 -8 -27 -1
-31 11 -8 8 -37 -5 -47 -6 -4 -4 -13 3 -22 11 -13 11 -19 2 -30 -9 -11 -10
-20 -1 -36 6 -11 8 -26 3 -33 -4 -6 -8 -20 -8 -30 -1 -10 -13 -25 -26 -34 -31
-22 -79 -73 -77 -81 1 -4 -4 -18 -12 -32 -7 -14 -11 -27 -9 -30 2 -2 -17 -5
-44 -5 -26 0 -47 4 -47 9 0 5 -6 4 -13 -2 -15 -12 -177 -11 -177 2 0 5 -6 4
-12 -2 -8 -6 -71 -9 -153 -9 -113 1 -142 4 -153 17 -11 13 -12 13 -7 0 5 -14
-18 -16 -195 -16 -110 0 -200 4 -200 8 0 4 -7 8 -15 8 -8 0 -15 -3 -15 -7 0
-12 -504 -11 -511 0 -4 5 -15 4 -29 -3 -12 -6 -29 -8 -38 -4 -9 4 -21 6 -27 4
-24 -8 -211 -7 -216 2 -3 5 -16 5 -31 -1 -28 -11 -66 -9 -86 3 -7 4 -12 3 -12
-2 0 -4 -58 -8 -130 -8 -96 0 -130 3 -130 12 0 7 6 15 13 17 7 3 5 6 -5 6 -10
1 -17 4 -16 9 6 17 -71 112 -91 112 -42 0 -101 60 -82 84 11 13 11 56 -1 56
-4 0 -4 10 1 23 4 12 7 80 6 150 -1 70 2 130 7 133 4 3 6 10 3 15 -10 15 -12
130 -3 135 5 3 5 10 1 17 -3 6 -7 37 -9 69 -1 45 2 60 15 68 14 8 14 9 0 10
-12 0 -15 10 -14 43 0 23 4 47 8 54 4 6 3 14 -2 18 -6 3 -6 16 0 34 8 22 15
28 30 24 13 -4 19 0 19 11 0 15 14 20 47 19 7 -1 11 3 8 7 -2 3 9 22 25 41 16
19 29 42 30 52 0 9 4 17 9 17 5 0 11 8 13 18 5 18 68 29 68 12z"/>
<path d="M387 1518 l-26 -23 -2 -479 -2 -480 27 -23 27 -23 1094 0 1094 0 25
22 25 23 7 466 c4 256 3 475 0 487 -16 50 13 49 -1152 51 l-1091 3 -26 -24z
m283 -503 l0 -505 -128 0 c-115 0 -131 2 -146 19 -17 18 -18 54 -17 488 1 462
2 468 22 486 18 14 42 17 145 17 l124 0 0 -505z m1649 -2 l-4 -503 -812 0
-813 0 0 506 0 506 816 -4 816 -3 -3 -502z m304 479 c19 -16 19 -33 12 -482
-6 -401 -9 -467 -22 -482 -14 -16 -35 -18 -150 -18 l-133 0 5 223 c3 122 5
349 5 504 l0 282 132 -5 c106 -4 136 -8 151 -22z"/>
<path d="M426 1384 c-20 -19 -20 -35 -3 -58 12 -16 28 -19 100 -19 93 0 117
10 117 47 0 33 -19 46 -66 46 -52 0 -77 -21 -68 -56 6 -23 4 -24 -27 -19 -49
9 -56 21 -29 50 19 20 20 25 7 25 -8 0 -23 -7 -31 -16z m184 -19 c18 -22 3
-35 -40 -35 -21 0 -42 5 -45 10 -11 17 15 40 45 40 15 0 33 -7 40 -15z"/>
<path d="M437 1242 c-10 -10 -17 -25 -17 -34 0 -24 37 -51 57 -43 16 6 16 8
-3 15 -30 12 -38 28 -24 45 19 23 40 18 104 -25 81 -55 96 -54 96 10 0 36 -4
50 -14 50 -11 0 -13 -10 -9 -40 3 -22 2 -40 -1 -40 -4 0 -33 18 -63 40 -61 44
-100 50 -126 22z"/>
<path d="M630 1093 c0 -16 -10 -18 -91 -15 -115 4 -126 1 -102 -33 22 -30 47
-34 38 -5 -6 19 -2 20 74 20 74 0 81 -2 81 -20 0 -11 5 -20 10 -20 6 0 10 20
10 45 0 25 -4 45 -10 45 -5 0 -10 -8 -10 -17z"/>
<path d="M436 951 c-23 -25 -13 -59 21 -72 32 -12 33 -12 33 6 0 9 -9 15 -21
15 -15 0 -20 5 -17 23 5 37 43 33 110 -12 80 -54 88 -53 88 9 0 28 -4 50 -10
50 -5 0 -10 -16 -10 -35 0 -19 -4 -35 -8 -35 -5 0 -31 16 -58 35 -56 40 -101
46 -128 16z"/>
<path d="M586 820 c-5 -12 -22 -14 -86 -12 -73 3 -80 2 -80 -15 0 -15 16 -24
75 -41 96 -28 103 -28 107 6 2 21 8 27 26 25 14 -2 22 3 22 13 0 11 -6 15 -20
11 -12 -3 -24 1 -29 11 -8 15 -10 15 -15 2z m-6 -57 c0 -19 -3 -23 -12 -15 -7
5 -28 13 -45 17 -52 11 -48 23 7 23 47 1 50 -1 50 -25z"/>
<path d="M413 630 c-1 -38 2 -50 13 -50 10 0 14 12 14 39 l0 38 67 -18 c79
-22 147 -25 141 -6 -3 7 -26 13 -54 15 -27 1 -72 9 -101 17 -76 22 -78 21 -80
-35z"/>
<path d="M2382 1378 c-18 -18 -14 -56 7 -68 28 -14 174 -13 189 2 7 7 12 21
12 33 0 32 -19 45 -65 45 -44 0 -65 -13 -65 -41 0 -24 -16 -32 -46 -25 -27 7
-32 33 -9 42 8 4 15 10 15 15 0 13 -24 11 -38 -3z m183 -33 c0 -15 -8 -21 -34
-23 -38 -4 -57 9 -47 33 4 12 16 15 43 13 30 -2 38 -7 38 -23z"/>
<path d="M2386 1224 c-11 -30 -6 -53 15 -64 26 -15 40 -3 16 14 -21 16 -22 42
-2 50 21 8 61 -9 103 -44 21 -17 48 -30 64 -30 26 0 28 2 28 45 0 25 -4 45
-10 45 -5 0 -10 -16 -10 -35 0 -23 -5 -35 -14 -35 -8 0 -33 16 -56 35 -34 28
-50 35 -85 35 -30 0 -45 -5 -49 -16z"/>
<path d="M2588 1089 c-3 -21 -8 -22 -105 -20 -57 1 -103 -1 -103 -6 1 -13 37
-53 49 -53 9 0 9 6 1 20 -10 19 -8 20 71 20 72 0 81 -2 86 -20 10 -37 23 -20
23 30 0 49 -16 70 -22 29z"/>
<path d="M2408 953 c-10 -2 -21 -16 -25 -30 -4 -20 -1 -31 17 -45 12 -10 26
-15 31 -12 13 7 1 24 -17 24 -19 0 -18 36 2 44 24 9 53 -2 103 -40 24 -19 54
-34 67 -34 22 0 24 4 24 45 0 25 -4 45 -10 45 -5 0 -10 -16 -10 -35 0 -19 -3
-35 -6 -35 -12 0 -50 24 -74 46 -26 24 -71 36 -102 27z"/>
<path d="M2536 811 c-4 -6 -40 -11 -87 -11 -109 0 -106 -19 8 -53 47 -14 90
-24 95 -21 4 3 8 16 8 30 0 17 5 24 20 24 11 0 20 5 20 10 0 6 -8 10 -18 10
-10 0 -23 5 -29 11 -8 8 -13 8 -17 0z m-6 -46 c0 -13 -7 -15 -37 -9 -73 13
-81 23 -20 23 45 1 57 -2 57 -14z"/>
<path d="M2372 625 c-1 -33 3 -45 13 -45 11 0 15 11 15 36 0 30 3 35 18 29 59
-24 175 -37 180 -20 1 6 -28 13 -65 17 -38 3 -81 11 -96 17 -54 21 -64 16 -65
-34z"/>
</g>
</svg>
